<?xml version="1.0" encoding="UTF-8"?>
<svg xmlns="http://www.w3.org/2000/svg" viewBox="0 0 44.37 34.37">
  <defs>
    <style>.cls-1{fill:#deaa34;}.cls-2{fill:#8a7e75;}.cls-3{fill:#1c1c1a;}.cls-4{fill:#436751;}.cls-5{fill:#437457;}</style>
  </defs>
  <title>logo-pc-box</title>
  <g id="Capa_2" data-name="Capa 2">
    <g id="Capa_1-2" data-name="Capa 1">
      <g id="hNmaHM">
        <path class="cls-1" d="M14.21,6.58v6.15c0,.42,0,.42-.41.42H1.45c-.29,0-.41-.06-.41-.39,0-4.08,0-8.16,0-12.24,0-.09,0-.18,0-.27A.23.23,0,0,1,1.32,0H13.79c.42,0,.42,0,.42.42ZM7.41,1.65A4.44,4.44,0,0,1,9.15,4.1a10.3,10.3,0,0,1,.22,4.17,4.26,4.26,0,0,1-1.67,3,.62.62,0,0,0-.14.14c-.07.07-.12.15,0,.24s.14,0,.21,0a.6.6,0,0,0,.13-.09,5.83,5.83,0,0,0,2.57-6.11A6.36,6.36,0,0,0,7.84,1.58C7.7,1.48,7.55,1.43,7.41,1.65Zm-2,6.72a.74.74,0,0,0-.66.69.7.7,0,0,0,.72.63A.75.75,0,0,0,6.1,9,.77.77,0,0,0,5.36,8.37ZM6,4.74A.71.71,0,0,0,5.38,4a.73.73,0,0,0-.68.68.74.74,0,0,0,.63.69A.72.72,0,0,0,6,4.74Z"></path>
        <path class="cls-2" d="M30.3,27.21c.81,0,1.63-.07,2.44-.12,1-.07,2.08,0,3.13,0,1.54-.05,3.08-.19,4.62-.33.65-.06,1.29-.15,2-.22a.53.53,0,0,0-.41-.07c-1.35,0-2.69.11-4,.23a2.15,2.15,0,0,1-.91,0c-.23-.08-.4.13-.63.14-.81.06-1.61,0-2.41.06-1.15,0-2.3.09-3.45.16h-.32c-.1-.17,0-.34-.07-.55l6.13-.18a.79.79,0,0,0-.61-.13l-5,.08h-.28c-.17,0-.24-.06-.22-.24V14.48a1,1,0,0,1,0-.18c.1-.11.21-.07.31-.07H42.93c.43,0,.43,0,.43.43,0,4.07,0,8.15,0,12.23,0,.31-.08.4-.4.39-.94,0-1.88,0-2.82,0s-1.71.08-2.57,0c-2-.11-4.07,0-6.11,0a5.64,5.64,0,0,1-1.16,0ZM31.18,26h3.43a.42.42,0,0,0,.43-.27c.28-.49.58-1,.87-1.46l.81-1.34a.67.67,0,0,1,.24.31c.48.82,1,1.64,1.43,2.47a.49.49,0,0,0,.5.29h3.22c.09,0,.2.05.3-.06l-.2-.3-3.34-4.92a.36.36,0,0,1,0-.51c.91-1.31,1.8-2.62,2.69-3.93a3.61,3.61,0,0,0,.48-.77c-1,0-1.87.05-2.77,0a1,1,0,0,0-1.18.69c-.34.73-.76,1.42-1.17,2.18-.42-.74-.85-1.41-1.17-2.13a1.11,1.11,0,0,0-1.28-.74c-1,.06-1.92,0-2.88,0,0,.14.07.2.12.27,1,1.45,2,2.9,3.07,4.34a.44.44,0,0,1,0,.62c-.66,1-1.31,1.92-2,2.88Zm9.52.21h.07a.27.27,0,0,0-.07-.08s-.05,0-.06,0S40.67,26.21,40.7,26.21Z"></path>
        <path class="cls-2" d="M14.17,14.25V27.17a11.57,11.57,0,0,1-1.94.13H1.52a.75.75,0,0,1-.39,0,.9.9,0,0,1,0-.43q0-6.09,0-12.19c0-.26,0-.42.37-.42H13.92Zm-3.48,6c0-.11.1-.12.15-.15a2.42,2.42,0,0,0-.19-4.14,4.08,4.08,0,0,0-1.88-.43H3.14c-.12,0-.24,0-.33,0V26C4.92,26,7,26,9.08,26a3.71,3.71,0,0,0,1.85-.54,2.92,2.92,0,0,0,1.51-2.88A2.53,2.53,0,0,0,10.69,20.23Zm-.87,6.59c-.24-.11-.41-.14-.58,0C9.51,27,9.51,27,9.82,26.82Z"></path>
        <path class="cls-2" d="M15.69,27V14.25h13a.72.72,0,0,1,.05.43v11.2c0,.43,0,.43-.45.44-2.65.09-5.28.25-7.92.41L16,27C15.93,27.05,15.83,27,15.69,27Zm1.21-6.31c0,.17,0,.34,0,.52A4.94,4.94,0,0,0,20,25.83a5.35,5.35,0,0,0,5.8-.88,5.12,5.12,0,0,0,1.7-3.6c.27-2.92-1.37-5.72-4.64-6a5.42,5.42,0,0,0-3.85.91A5.27,5.27,0,0,0,16.9,20.73Z"></path>
        <path class="cls-3" d="M9.73,30.5l.07,0c.55-.32.55-.32.58-.92a.27.27,0,0,1,.28.1c.19.28.39.17.61.06l.89-.43c.39-.18.4-.18.58.21,0,.06,0,.12.09.21-.51.24-1,.46-1.52.74-.31.17-.47.35-.33.72.39-.17.79-.35,1.19-.51.14-.06.3-.18.46,0s.14,0,.19,0c.26-.24.58-.44.62-.84,0-.05.06-.09.1-.16.28.3.57.22.88.07s.71-.28,1.07-.42a.52.52,0,0,1,.62.06c.14.18,0,.43-.09.63a16,16,0,0,1-1.35,1.61l-.17.19,1.35.35c-.07.47-.12.53-.54.41a3.32,3.32,0,0,0-.94-.07c-.25,0-.34.09-.31.33a.73.73,0,0,1,0,.36c-.05.11-.2.11-.32.11s-.15-.12-.17-.22l-.3-1.72c0-.13-.06-.25-.1-.4-.63.33-1.25.67-1.89,1-.24.12-.21.28-.12.5l1.77-.83.34.58c-.36.19-.71.36-1,.55s-.48.28-.71.44c-.5.34-.67.3-.76-.32-.05-.35-.19-.48-.5-.51-.12,0-.24,0-.24-.19s-.06-.28.13-.37a.54.54,0,0,0,.32-.81c-.39.24-.79.55-1.31.09-.38.39-.79.83-1.21,1.24a.46.46,0,0,0-.16.49,1.56,1.56,0,0,1,0,.43c0,.14,0,.33-.19.33a.34.34,0,0,1-.36-.31c0-.42-.06-.84-.1-1.26l-.09-1.08a1.94,1.94,0,0,0-1.17,1.09.29.29,0,0,0,.05.36,8.09,8.09,0,0,1,.56.61c.1.14.35.27.2.45s-.35,0-.49-.12-.5-.38-.77-.59c-.33.44-.66.87-1,1.31s-.33.44-.95.38a3.76,3.76,0,0,1,.68-1.1c.25-.34.52-.67.81-1-.28-.27-.58-.52-.84-.8-.09-.1-.32-.23-.14-.42s.29,0,.4.11c.29.18.57.39.85.59.33-.44.66-.87,1-1.29.08-.1.15-.27.34-.12s.19-.05.27-.11a4,4,0,0,1,1.49-.7,2.94,2.94,0,0,1,.51-.05c.62,0,.89.38.75,1,0,0-.06.09,0,.12S9.7,30.51,9.73,30.5Zm5.4-.5a3.44,3.44,0,0,0-1,.4c-.09.05-.17.09-.16.23s0,.49.05.8a12.13,12.13,0,0,0,1.18-1.37l.05,0C15.21,30,15.17,30,15.13,30ZM7.82,31.38A4.46,4.46,0,0,0,9,30.07a.64.64,0,0,0-.4.08c-1,.35-.86.07-.78,1.19Z"></path>
        <path class="cls-3" d="M34.35,30.73c-.06.85,0,1.7-.09,2.56-.27,0-.35-.21-.41-.4a3.91,3.91,0,0,0-1.11-1.71c-.1-.08-.18-.2-.38-.2,0,.66-.27,1.32.11,2A1.36,1.36,0,0,1,32,33a2.61,2.61,0,0,1-.17-1,8.6,8.6,0,0,0-1.61.88A1.7,1.7,0,0,1,30,33c-.21.11-.39.09-.45-.18a2,2,0,0,1-.07-.23c0-.34-.13-.61-.56-.58a.17.17,0,0,1-.2-.19c0-.13-.06-.28.13-.36a.56.56,0,0,0,.34-.81,1.62,1.62,0,0,1-.9.33c-.28,0-.38-.16-.24-.4a1,1,0,0,1,.41-.36c.39-.21.81-.39.6-.95.12,0,.19,0,.23,0,.29.37.58.19.88,0s.48-.23.72-.34c.4-.18.4-.18.58.2l.09.24a13.22,13.22,0,0,0-1.61.77.47.47,0,0,0-.24.69c.44-.2.86-.41,1.3-.57.22-.08.35,0,.41.16s.11.36-.16.48-.77.39-1.16.58c-.23.12-.36.26-.25.55a9,9,0,0,0,1.06-.47,4,4,0,0,0,.46-.23c.17-.09.32-.15.48.06V29.62l.08-.05a19,19,0,0,1,1.81,1.78,1.7,1.7,0,0,0,.16-1l-.21-1.65c0-.21,0-.4.29-.46.16.59.22,1.19.35,1.82a26.5,26.5,0,0,1,3.4-1.45s.07.07.08.1c.12.51.12.51-.37.74l-.14.07c-.81.38-.81.38-.72,1.27,0,.58.1,1.16.16,1.74,0,0,0,.08,0,.13-.25.12-.4,0-.49-.22a2.42,2.42,0,0,1-.17-.88,3,3,0,0,0-.28-1.43,2,2,0,0,1-1.34.45C34.31,30.58,34.31,30.64,34.35,30.73Z"></path>
        <path class="cls-3" d="M39.15,30.36l1.19-.51c.08,0,.21-.12.25-.09.3.23.46,0,.65-.16a1,1,0,0,0,.38-.62.22.22,0,0,1,.14-.16c.22.27.5.23.8.09s.63-.26.95-.39l.22-.08c.2-.06.44-.08.56.07s.06.4-.06.59a9.52,9.52,0,0,1-1,1.26c-.17.18-.33.37-.52.59L44,31.3c0,.46-.09.52-.5.41a3.32,3.32,0,0,0-.94-.07c-.27,0-.35.1-.32.35s.07.27,0,.38a.29.29,0,0,1-.49-.2c-.13-.68-.2-1.36-.37-2.06-.65.37-1.35.63-2,1-.19.12-.06.27-.11.48l1.85-.86.33.58a14.49,14.49,0,0,0-2,1.13c-.22.16-.39.08-.48-.18a.6.6,0,0,1-.06-.19c0-.47-.25-.65-.71-.61-.09-.25-.14-.45.17-.6a.52.52,0,0,0,.24-.75c-.27.12-.52.38-.87.31-.11,0-.23.05-.3-.11s0-.25.08-.35a1.28,1.28,0,0,1,.37-.29c.58-.34.58-.34.65-1a.25.25,0,0,1,.25.09c.2.29.42.19.67.06s.63-.28.92-.45.38-.05.48.17l.12.3a12.86,12.86,0,0,0-1.54.74C39.19,29.8,39,30,39.15,30.36Zm4.32-1.18a4.36,4.36,0,0,0-1.17.41c-.1.06-.2.1-.18.26s0,.49.06.78C42.67,30.18,43,29.68,43.47,29.18Z"></path>
        <path class="cls-3" d="M1.08,30.08a.25.25,0,0,1,.3.07c.21.29.43.18.67.05s.61-.26.89-.43.42-.07.52.19c0,.09.08.17.12.27A11.45,11.45,0,0,0,2,31c-.29.16-.46.33-.33.72l.94-.43L3,31.12a.28.28,0,0,1,.43.2c0,.17.09.33-.17.44s-.79.41-1.2.6a.36.36,0,0,0-.2.54l1.79-.82.33.58-.78.4a7.42,7.42,0,0,0-1.08.66c-.36.24-.49.2-.62-.22a.65.65,0,0,1,0-.19c0-.33-.15-.5-.51-.49-.13,0-.23-.08-.25-.25a.26.26,0,0,1,.16-.31.58.58,0,0,0,.33-.82,1.56,1.56,0,0,1-.9.34c-.11,0-.22,0-.28-.1a.31.31,0,0,1,.05-.33A1.25,1.25,0,0,1,.47,31C.84,30.81,1.31,30.66,1.08,30.08Z"></path>
        <path class="cls-4" d="M31.48,12.89c-.31-.07-.62-.17-.93-.22s-.3-.17-.3-.41c0-2,0-4,0-5.95V0H43.37V13.12c-.13.09-.28,0-.42,0-2.55,0-5.11,0-7.66,0-.48,0-1-.05-1.44-.05h0s0-.08,0-.1a1.34,1.34,0,0,0-.68-.14c-.19-.1,0-.25,0-.39-.38,0-.12.3-.24.41h0c-.15-.39-.14-.42.27-.71.07.15.14.29.19.43s.08.17.19.18c.39.06.76.29,1.18.19.09.07.18.12.27,0a7.24,7.24,0,0,0,1.23.05H42.7c.59,0,.59,0,.59-.6q0-5.62,0-11.27c0-.33-.17-.64,0-1H30.46a.86.86,0,0,0,0,.39c0,1.91,0,3.81,0,5.72s0,3.86,0,5.8c0,.36.15.56.49.58s.41.07.62.1A.13.13,0,0,1,31.48,12.89Z"></path>
        <path class="cls-4" d="M15.71,0,16,0h12.8V.46q0,6,0,12.07c0,.1,0,.21,0,.31s-.06,0-.06,0h-.11v0a.22.22,0,0,0-.3,0h-.07s0-.11,0-.11c.41,0,.35-.28.35-.54V1.07c0-.12,0-.24,0-.36.07-.53.07-.53-.47-.53H17.64a4.18,4.18,0,0,1-.86,0c-.22,0-.45.07-.7,0s-.23.11-.26.24a1.74,1.74,0,0,0,0,.32V12.47a1.75,1.75,0,0,0,0,.4c0,.08.08.2.19.16.35-.14.7,0,1,0,3.68,0,7.35.09,11-.07,0,.28-.26.14-.38.14H16.81l-1.07,0,0,0c0-.36,0-.72,0-1.07Q15.72,6,15.71,0Z"></path>
        <path class="cls-3" d="M22.52,31a5.33,5.33,0,0,0-1.46.48,1.94,1.94,0,0,1-.45.14c-.34,0-.51-.21-.38-.53a3.59,3.59,0,0,1,.65-.94c.33-.38.69-.73,1-1.11.16-.18.33-.26.55-.12.15.31,0,.53-.23.75a4.33,4.33,0,0,0-.89.92,2.91,2.91,0,0,0,.8-.14,2.34,2.34,0,0,1,.38-.09c.25,0,.53-.07.68.2a.74.74,0,0,1,0,.86A8.6,8.6,0,0,1,21.24,33a1.55,1.55,0,0,1-.52.1,1.32,1.32,0,0,1,.56-.79c.32-.26.67-.48,1-.77A1.26,1.26,0,0,0,22.6,31s0-.05,0-.07S22.56,30.94,22.52,31Z"></path>
        <path class="cls-3" d="M17.61,30.42c-.39.17-.68.48-1.12.44-.19,0-.37-.05-.41-.22a.42.42,0,0,1,.22-.4,27.51,27.51,0,0,1,3.29-1.34l0,.1c.13.49.12.48-.34.72-.31.15-.73.2-.89.47s0,.67,0,1c.05.58.1,1.15.16,1.72-.35.16-.47-.05-.55-.28a4.71,4.71,0,0,1-.17-1.29A1.77,1.77,0,0,0,17.61,30.42Z"></path>
        <path class="cls-3" d="M27.69,29.12l.21.2c.15.15.16.27,0,.46A7.65,7.65,0,0,0,26.44,32c-.06.13-.2.27-.06.43s.31.1.48.06a1.55,1.55,0,0,0,.77-.45l.66-.63c.34.49.31.72-.12,1.06a4.15,4.15,0,0,1-1.28.68.89.89,0,0,1-1.06-.79,1.84,1.84,0,0,1,.07-.47A6.79,6.79,0,0,1,27.69,29.12Z"></path>
        <path class="cls-2" d="M19.47,27.13c3.07-.32,6.16-.29,9.22-.63a1,1,0,0,1,0,.65l-3.84.18c.08-.15.26,0,.35-.16A6.27,6.27,0,0,0,23,27.05,25.24,25.24,0,0,1,19.47,27.13Z"></path>
        <path class="cls-2" d="M15.74,13.15l1.07,0H27.73c.12,0,.34.14.38-.14l.1-.1h.37v0l-.14.08c0,.14.22,0,.23.25,0,0-.09,0-.14,0H16.76A3.86,3.86,0,0,1,15.74,13.15Z"></path>
        <path class="cls-2" d="M15.71,0q0,6,0,12c0,.35,0,.71,0,1.07-.1-.1,0-.23,0-.34V.36C15.65.25,15.59.12,15.71,0Z"></path>
        <path class="cls-3" d="M20.87,29.36c-.54-.14-.54-.14-.41-.61a1.46,1.46,0,0,1,.31-.59c.1-.13.21-.25.39-.13s.11.24.05.38A5.05,5.05,0,0,0,20.87,29.36Z"></path>
        <path class="cls-2" d="M33.15,12.89a1.34,1.34,0,0,1,.68.14l-.07.07.09,0h0c-.22.13-.41.16-.54-.12C33.29,13,33.21,12.92,33.15,12.89Z"></path>
        <path class="cls-2" d="M31.48,12.89a.13.13,0,0,0,.06-.14v0c.16,0,.32-.05.45.08a.22.22,0,0,1,0,.08c-.08,0-.18,0-.23.08A.39.39,0,0,1,31.48,12.89Z"></path>
        <path class="cls-2" d="M32.82,12.9h0l0,.28a2.8,2.8,0,0,1-.87,0h.59c.11,0,.19,0,.18-.15Z"></path>
        <path class="cls-4" d="M32.8,13c0,.13-.07.15-.18.15H32s0,0-.05-.05l0,0C32.28,13.1,32.53,13,32.8,13Z"></path>
        <path class="cls-4" d="M31.76,13c0-.09.15-.06.23-.08l0,.16,0,0-.14,0a.05.05,0,0,0-.06-.06Z"></path>
        <path class="cls-2" d="M28.7,12.88s0-.05.06,0S28.73,12.89,28.7,12.88Z"></path>
        <path class="cls-2" d="M31.78,13a.05.05,0,0,1,.06.06C31.79,13.05,31.78,13,31.78,13Z"></path>
        <path class="cls-2" d="M7.41,1.65c.14-.22.29-.17.43-.07a6.36,6.36,0,0,1,2.59,3.89,5.83,5.83,0,0,1-2.57,6.11.6.6,0,0,1-.13.09c-.07,0-.14.09-.21,0s0-.17,0-.24a.62.62,0,0,1,.14-.14,4.26,4.26,0,0,0,1.67-3A10.3,10.3,0,0,0,9.15,4.1,4.44,4.44,0,0,0,7.41,1.65Z"></path>
        <path class="cls-2" d="M5.36,8.37A.77.77,0,0,1,6.1,9a.75.75,0,0,1-.68.69.7.7,0,0,1-.72-.63A.74.74,0,0,1,5.36,8.37Z"></path>
        <path class="cls-2" d="M6,4.74a.72.72,0,0,1-.7.66.74.74,0,0,1-.63-.69A.73.73,0,0,1,5.38,4,.71.71,0,0,1,6,4.74Z"></path>
        <path class="cls-5" d="M32,13.05l0-.16a.22.22,0,0,0,0-.08c.1,0,.17,0,.16-.15s.05-.08,0-.1a3,3,0,0,0-1.27-.31l.17.16c.09.16.24.06.37.08h0l.08.24v0c-.21,0-.41-.09-.62-.1s-.49-.22-.49-.58c0-1.94,0-3.87,0-5.8s0-3.81,0-5.72a.86.86,0,0,1,0-.39H43.27c-.14.38,0,.69,0,1q0,5.64,0,11.27c0,.6,0,.6-.59.6H36.15A7.24,7.24,0,0,1,34.92,13h-.27c-.42.1-.79-.13-1.18-.19-.11,0-.15-.08-.19-.18s-.12-.28-.19-.43c-.41.29-.42.32-.27.71l0,.08C32.53,13,32.28,13.1,32,13.05Zm6.13-4h0C38,9,38,9,38,9.17h0a.39.39,0,0,0-.23.05,1.75,1.75,0,0,1-2.08-.49c0-.06-.11-.12-.2-.09h0c0-.07,0-.14,0-.19A5.18,5.18,0,0,1,35.16,7a5.33,5.33,0,0,1,.16-1.78,3.66,3.66,0,0,1,.59-1.1c.14,0,.24-.07.36-.13a1.56,1.56,0,0,1,2.24,1,.45.45,0,0,0,.49.39h2.53c.44,0,.54-.16.42-.56a11.16,11.16,0,0,0-.32-1.13,3.67,3.67,0,0,0-.89-1.46c-.1-.08-.17-.22-.34-.15h0V2.05l-.06,0L40.19,2A1.53,1.53,0,0,0,39,1.29c-.13-.17-.33-.13-.51-.17a6.09,6.09,0,0,0-4.19.49.84.84,0,0,0-.46.41h0c-.13,0-.26,0-.23.17s0,.06-.07.07c-.51.12-.7.54-.88,1l0,0,0,0c-.09,0-.14,0-.18.1a6.37,6.37,0,0,0-.81,2.36,6.6,6.6,0,0,0,.62,3.89c.07.13.12.28.3.27l0,0h0c0,.18,0,.32.23.32l0,0,0,0A1.78,1.78,0,0,0,34,11.29h0a.69.69,0,0,0,.52.43c.18,0,.5.17.5.25s.1.12.17.14.09.06.15.07A2,2,0,0,1,36,12.1s0,.06.09.07a5.77,5.77,0,0,0,2.48-.1c.21-.05.46-.07.57-.33h0a.66.66,0,0,0,.73-.37h0c.13,0,.26,0,.24-.16h0c.25,0,.43-.05.42-.35l0,0c.2.07.19-.06.19-.19h0q.09,0,.09-.09h0a.26.26,0,0,0,.3-.15,7.6,7.6,0,0,0,.7-1.36A3.63,3.63,0,0,0,42,8c0-.12.06-.28-.16-.29h0c-.06-.11-.16-.09-.25-.09H39c-.09,0-.19,0-.25.08h0c-.09,0-.19,0-.2.09-.06.39-.31.71-.35,1.11h0A.08.08,0,0,0,38.15,9Z"></path>
        <path class="cls-5" d="M28.21,12.88l-.1.1c-3.68.16-7.35,0-11,.07-.35,0-.7-.16-1,0-.11,0-.17-.08-.19-.16a1.75,1.75,0,0,1,0-.4V.68a1.74,1.74,0,0,1,0-.32c0-.13.14-.28.26-.24s.48,0,.7,0a4.18,4.18,0,0,0,.86,0H28.13c.54,0,.54,0,.47.53,0,.12,0,.24,0,.36V12.23c0,.26.06.55-.35.54C28.24,12.77,28.23,12.84,28.21,12.88Zm-2-5.47.08-.08a1.66,1.66,0,0,0,.14-.13,3.82,3.82,0,0,0,.37-3.32c-.07-.24-.09-.53-.36-.68a.86.86,0,0,0-.63-.8c0-.29-.17-.33-.4-.31,0-.12-.08-.18-.17-.25a2.2,2.2,0,0,0-1.34-.39.79.79,0,0,0-.51-.16H17.84c-.37,0-.51.18-.43.54a3,3,0,0,1,.06.66v9.17c0,.41,0,.44.42.44h2.54c.44,0,.54-.11.54-.54v-2c0-.69-.1-.61.61-.62a10.71,10.71,0,0,0,2.59-.15A3.41,3.41,0,0,0,25.74,8l.08-.08c.14-.1.3-.19.32-.4Z"></path>
        <path class="cls-5" d="M28.58,12.86h-.3A.22.22,0,0,1,28.58,12.86Z"></path>
        <path class="cls-4" d="M32.16,12.66c0,.12-.06.15-.16.15s-.29-.08-.45-.08l-.08-.24A3.31,3.31,0,0,1,32.16,12.66Z"></path>
        <path class="cls-2" d="M6,23.46c0-.57,0-1.12,0-1.67,0-.2.07-.26.25-.25.68,0,1.35,0,2,0a.87.87,0,0,1,.9,1.05.81.81,0,0,1-.75.83C7.66,23.49,6.87,23.46,6,23.46Z"></path>
        <path class="cls-2" d="M6,19.58c0-.47,0-.9,0-1.34,0-.17.07-.24.23-.23a16.5,16.5,0,0,1,1.86,0c.51.06.72.29.72.72a.71.71,0,0,1-.74.8C7.43,19.6,6.76,19.58,6,19.58Z"></path>
        <path class="cls-2" d="M24.31,20.73a3.71,3.71,0,0,1-.38,1.85,1.81,1.81,0,0,1-1.76,1.06,1.78,1.78,0,0,1-1.71-1.14,4.21,4.21,0,0,1,.05-3.57,1.77,1.77,0,0,1,1.69-1.06,1.84,1.84,0,0,1,1.69,1A3.47,3.47,0,0,1,24.31,20.73Z"></path>
        <path class="cls-4" d="M35.91,4.08a1.68,1.68,0,0,1,2.7.83.41.41,0,0,0,.5.34h2.74A4.76,4.76,0,0,0,40.4,2.12c.17-.07.24.07.34.15a3.67,3.67,0,0,1,.89,1.46A11.16,11.16,0,0,1,42,4.86c.12.4,0,.56-.42.56H39A.45.45,0,0,1,38.51,5a1.56,1.56,0,0,0-2.24-1c-.12.06-.22.16-.36.13h0Z"></path>
        <path class="cls-4" d="M31.76,7.23a6.52,6.52,0,0,0,.84,2.61c-.18,0-.23-.14-.3-.27a6.6,6.6,0,0,1-.62-3.89,6.37,6.37,0,0,1,.81-2.36c0-.08.09-.12.18-.1A6.39,6.39,0,0,0,31.76,6,2.56,2.56,0,0,0,31.76,7.23Z"></path>
        <path class="cls-4" d="M38.79,1.3a6.67,6.67,0,0,0-4,.23,10.46,10.46,0,0,0-.94.49.84.84,0,0,1,.46-.41,6.09,6.09,0,0,1,4.19-.49c.18,0,.38,0,.51.17l0,0Z"></path>
        <path class="cls-4" d="M35.47,8.63A3.89,3.89,0,0,1,35,6.27a3.32,3.32,0,0,1,.47-1.74,1.24,1.24,0,0,1,.34-.38h.09a3.66,3.66,0,0,0-.59,1.1A5.33,5.33,0,0,0,35.16,7a5.18,5.18,0,0,0,.33,1.41C35.51,8.49,35.48,8.56,35.47,8.63Z"></path>
        <path class="cls-4" d="M40.81,10.57A4.38,4.38,0,0,0,41.88,8a1.79,1.79,0,0,0,0-.23c.22,0,.17.17.16.29a3.63,3.63,0,0,1-.21,1,7.6,7.6,0,0,1-.7,1.36A.26.26,0,0,1,40.81,10.57Z"></path>
        <path class="cls-4" d="M36.35,12.08a6.56,6.56,0,0,0,2.78-.34c-.11.26-.36.28-.57.33a5.77,5.77,0,0,1-2.48.1S36,12.12,36,12.1l0,0Z"></path>
        <path class="cls-4" d="M38,9.17a1.71,1.71,0,0,1-2.51-.53c.09,0,.15,0,.2.09a1.75,1.75,0,0,0,2.08.49A.39.39,0,0,1,38,9.17Z"></path>
        <path class="cls-4" d="M34,11.28A5.93,5.93,0,0,0,36,12a.09.09,0,0,0,0,.05l0,0a2,2,0,0,0-.64.07c0-.13-.09-.08-.15-.07S35,12.16,35,12s-.32-.2-.5-.25A.69.69,0,0,1,34,11.28Z"></path>
        <path class="cls-4" d="M41.86,7.74H38.77c.06-.1.16-.08.25-.08h2.59C41.7,7.65,41.8,7.63,41.86,7.74Z"></path>
        <path class="cls-4" d="M32.83,10.17A7,7,0,0,0,34,11.29,1.78,1.78,0,0,1,32.83,10.17Z"></path>
        <path class="cls-4" d="M40.19,2a5.39,5.39,0,0,0-1.2-.6.07.07,0,0,0,0-.05l0,0A1.53,1.53,0,0,1,40.19,2Z"></path>
        <path class="cls-4" d="M38.77,7.74c-.18.4-.21.87-.55,1.2,0-.4.29-.72.35-1.11C38.58,7.75,38.68,7.73,38.77,7.74Z"></path>
        <path class="cls-2" d="M32.16,12.66a3.31,3.31,0,0,0-.69-.17h0c-.11-.1-.25-.05-.37-.08l-.17-.16a3,3,0,0,1,1.27.31S32.2,12.63,32.16,12.66Z"></path>
        <path class="cls-4" d="M33.55,2.26a10,10,0,0,0-.88,1C32.85,2.8,33,2.38,33.55,2.26Z"></path>
        <path class="cls-4" d="M39.14,11.74l.73-.37A.66.66,0,0,1,39.14,11.74Z"></path>
        <path class="cls-4" d="M40.1,11.21l.42-.35C40.53,11.16,40.35,11.23,40.1,11.21Z"></path>
        <path class="cls-4" d="M32.6,9.85a.9.9,0,0,1,.23.32C32.6,10.17,32.57,10,32.6,9.85Z"></path>
        <path class="cls-4" d="M39.86,11.37a.43.43,0,0,1,.24-.16C40.12,11.4,40,11.39,39.86,11.37Z"></path>
        <path class="cls-4" d="M33.85,2l-.23.17C33.59,2,33.72,2,33.85,2Z"></path>
        <path class="cls-4" d="M31.08,12.41c.12,0,.26,0,.37.08C31.32,12.47,31.17,12.57,31.08,12.41Z"></path>
        <path class="cls-4" d="M40.55,10.84a.5.5,0,0,1,.19-.19C40.74,10.78,40.75,10.91,40.55,10.84Z"></path>
        <path class="cls-4" d="M38.15,9a.24.24,0,0,1-.17.15C38,9,38,9,38.15,9Z"></path>
        <path class="cls-4" d="M38.23,8.93a.1.1,0,0,1-.08.09A.08.08,0,0,1,38.23,8.93Z"></path>
        <path class="cls-4" d="M40.73,10.66l.09-.09S40.79,10.65,40.73,10.66Z"></path>
        <path class="cls-4" d="M40.4,2.12s0,0,0,0l.06,0Z"></path>
        <path class="cls-4" d="M25.74,8a3.41,3.41,0,0,1-1.57.8,10.71,10.71,0,0,1-2.59.15c-.71,0-.6-.07-.61.62v2c0,.43-.1.53-.54.54H17.89c-.39,0-.42,0-.42-.44V2.49a3,3,0,0,0-.06-.66c-.08-.36.06-.53.43-.54H23.4a.79.79,0,0,1,.51.16H17.6V11.93h3.22V8.78h1.83a4.89,4.89,0,0,0,3-.87Z"></path>
        <path class="cls-4" d="M26.45,3.2c.27.15.29.44.36.68a3.82,3.82,0,0,1-.37,3.32,1.66,1.66,0,0,1-.14.13l-.05,0a4.16,4.16,0,0,0,.17-4.07Z"></path>
        <path class="cls-4" d="M23.91,1.45a2.2,2.2,0,0,1,1.34.39c.09.07.17.13.17.25h0a4.9,4.9,0,0,0-1.51-.59s0,0,0-.05Z"></path>
        <path class="cls-4" d="M25.82,2.4a.86.86,0,0,1,.63.8l0,0-.62-.81Z"></path>
        <path class="cls-4" d="M25.42,2.09c.23,0,.42,0,.4.31l0,0-.39-.32Z"></path>
        <path class="cls-4" d="M26.14,7.49c0,.21-.18.3-.32.4l-.06-.06.36-.35Z"></path>
        <path class="cls-4" d="M25.82,7.89,25.74,8l-.06-.06.08-.08Z"></path>
        <path class="cls-4" d="M26.22,7.41l-.08.08h0l.07-.09Z"></path>
        <path class="cls-4" d="M26.3,7.33l-.08.08,0,0,.06-.09Z"></path>
        <path class="cls-2" d="M31.76,7.23a2.56,2.56,0,0,1,0-1.23Z"></path>
        <path class="cls-2" d="M36,12.08A.09.09,0,0,1,36,12a.47.47,0,0,1,.35.05Z"></path>
        <path class="cls-2" d="M39,1.32a.07.07,0,0,1,0,.05.21.21,0,0,1-.2-.07Z"></path>
        <path class="cls-5" d="M35.91,4.15h-.09a.09.09,0,0,1,.09-.07Z"></path>
        <path class="cls-2" d="M23.9,1.51a.5.5,0,0,1-.36-.05h.36S23.9,1.5,23.9,1.51Z"></path>
        <path class="cls-4" d="M22.9,6.21a15.8,15.8,0,0,1-2.07.07V4.12c.72,0,1.44,0,2.15.06.06.07.13.05.2.05A1,1,0,0,1,23.39,6l0,0a1.25,1.25,0,0,0,.27-.61A.77.77,0,0,0,23,4.31a9.58,9.58,0,0,0-1.85-.07c-.19,0-.22.1-.22.25,0,.45,0,.9,0,1.34,0,.26.09.32.32.31h1.59l0,0A0,0,0,0,0,22.9,6.21Z"></path>
        <path class="cls-4" d="M23.23,6.1l-.13.06h-.2l0,0c.08-.12.21-.07.31-.08Z"></path>
        <path class="cls-2" d="M22.9,6.16h.2a.19.19,0,0,1-.2,0A0,0,0,0,1,22.9,6.16Z"></path>
        <path class="cls-2" d="M23.18,4.23c-.07,0-.14,0-.2-.05A.19.19,0,0,1,23.18,4.23Z"></path>
        <path class="cls-4" d="M23.39,6a.21.21,0,0,1-.16.08l0,0A.16.16,0,0,1,23.35,6Z"></path>
        <path class="cls-5" d="M23.35,6a.16.16,0,0,0-.16.08c-.1,0-.23,0-.31.08H21.29c-.23,0-.33,0-.32-.31,0-.44,0-.89,0-1.34,0-.15,0-.26.22-.25A9.58,9.58,0,0,1,23,4.31a.77.77,0,0,1,.58,1.06A1.25,1.25,0,0,1,23.35,6Z"></path>
      </g>
    </g>
  </g>
</svg>
